<mxfile host="app.diagrams.net" modified="2024-07-02T00:12:25.726Z" agent="Mozilla/5.0 (X11; Linux x86_64; rv:127.0) Gecko/20100101 Firefox/127.0" etag="-UkelZCtj8ddG5yfbJWG" version="24.6.4" type="device">
  <diagram name="Page-1" id="FoVzggmtTFars5EVtlTS">
    <mxGraphModel dx="1424" dy="792" grid="1" gridSize="10" guides="1" tooltips="1" connect="1" arrows="1" fold="1" page="1" pageScale="1" pageWidth="1100" pageHeight="850" math="0" shadow="0">
      <root>
        <mxCell id="0" />
        <mxCell id="1" parent="0" />
        <mxCell id="uufs_YSgteQFesupHKWV-1" value="" style="edgeStyle=orthogonalEdgeStyle;rounded=0;orthogonalLoop=1;jettySize=auto;html=1;startArrow=classic;startFill=1;" edge="1" parent="1" source="uufs_YSgteQFesupHKWV-2" target="uufs_YSgteQFesupHKWV-3">
          <mxGeometry relative="1" as="geometry" />
        </mxCell>
        <mxCell id="uufs_YSgteQFesupHKWV-2" value="Notebook Nay - Proxmox" style="sketch=0;outlineConnect=0;gradientColor=none;html=1;whiteSpace=wrap;fontSize=12;fontStyle=0;shape=mxgraph.aws4.group;grIcon=mxgraph.aws4.group_on_premise;strokeColor=#858B94;fillColor=none;verticalAlign=top;align=left;spacingLeft=30;fontColor=#858B94;dashed=0;movable=0;resizable=0;rotatable=0;deletable=0;editable=0;locked=1;connectable=0;" vertex="1" parent="1">
          <mxGeometry x="360" y="170" width="290" height="500" as="geometry" />
        </mxCell>
        <mxCell id="uufs_YSgteQFesupHKWV-3" value="" style="image;html=1;image=img/lib/clip_art/networking/Wireless_Router_128x128.png" vertex="1" parent="1">
          <mxGeometry x="590" y="50" width="80" height="80" as="geometry" />
        </mxCell>
        <mxCell id="uufs_YSgteQFesupHKWV-4" value="500Gb" style="sketch=0;pointerEvents=1;shadow=0;dashed=0;html=1;strokeColor=none;fillColor=#505050;labelPosition=center;verticalLabelPosition=bottom;verticalAlign=top;outlineConnect=0;align=center;shape=mxgraph.office.devices.hard_disk;" vertex="1" parent="1">
          <mxGeometry x="600" y="177.20000000000002" width="40" height="54" as="geometry" />
        </mxCell>
        <mxCell id="uufs_YSgteQFesupHKWV-6" value="Nginx" style="points=[[0,0],[0.25,0],[0.5,0],[0.75,0],[1,0],[1,0.25],[1,0.5],[1,0.75],[1,1],[0.75,1],[0.5,1],[0.25,1],[0,1],[0,0.75],[0,0.5],[0,0.25]];outlineConnect=0;gradientColor=none;html=1;whiteSpace=wrap;fontSize=12;fontStyle=0;container=1;pointerEvents=0;collapsible=0;recursiveResize=0;shape=mxgraph.aws4.group;grIcon=mxgraph.aws4.group_ec2_instance_contents;strokeColor=#D86613;fillColor=none;verticalAlign=top;align=left;spacingLeft=30;fontColor=#D86613;dashed=0;" vertex="1" parent="1">
          <mxGeometry x="380" y="212.4" width="150" height="67.6" as="geometry" />
        </mxCell>
        <mxCell id="uufs_YSgteQFesupHKWV-7" value="NextCloud" style="points=[[0,0],[0.25,0],[0.5,0],[0.75,0],[1,0],[1,0.25],[1,0.5],[1,0.75],[1,1],[0.75,1],[0.5,1],[0.25,1],[0,1],[0,0.75],[0,0.5],[0,0.25]];outlineConnect=0;gradientColor=none;html=1;whiteSpace=wrap;fontSize=12;fontStyle=0;container=1;pointerEvents=0;collapsible=0;recursiveResize=0;shape=mxgraph.aws4.group;grIcon=mxgraph.aws4.group_ec2_instance_contents;strokeColor=#D86613;fillColor=none;verticalAlign=top;align=left;spacingLeft=30;fontColor=#D86613;dashed=0;" vertex="1" parent="1">
          <mxGeometry x="380" y="290" width="150" height="100" as="geometry" />
        </mxCell>
        <mxCell id="uufs_YSgteQFesupHKWV-8" value="" style="shape=image;verticalLabelPosition=bottom;labelBackgroundColor=default;verticalAlign=top;aspect=fixed;imageAspect=0;image=https://open.cachefly.net/assets/images/img.png;" vertex="1" parent="uufs_YSgteQFesupHKWV-7">
          <mxGeometry x="5.519999999999982" y="32" width="53.59" height="56" as="geometry" />
        </mxCell>
        <mxCell id="uufs_YSgteQFesupHKWV-9" value="" style="shape=image;verticalLabelPosition=bottom;labelBackgroundColor=default;verticalAlign=top;aspect=fixed;imageAspect=0;image=https://user-images.githubusercontent.com/29705727/40315141-75a684e2-5d12-11e8-9732-b9bf680d8595.png;" vertex="1" parent="uufs_YSgteQFesupHKWV-7">
          <mxGeometry x="59.110000000000014" y="29.5" width="86.02" height="61" as="geometry" />
        </mxCell>
        <mxCell id="uufs_YSgteQFesupHKWV-10" value="CasaOS" style="points=[[0,0],[0.25,0],[0.5,0],[0.75,0],[1,0],[1,0.25],[1,0.5],[1,0.75],[1,1],[0.75,1],[0.5,1],[0.25,1],[0,1],[0,0.75],[0,0.5],[0,0.25]];outlineConnect=0;gradientColor=none;html=1;whiteSpace=wrap;fontSize=12;fontStyle=0;container=1;pointerEvents=0;collapsible=0;recursiveResize=0;shape=mxgraph.aws4.group;grIcon=mxgraph.aws4.group_ec2_instance_contents;strokeColor=#D86613;fillColor=none;verticalAlign=top;align=left;spacingLeft=30;fontColor=#D86613;dashed=0;" vertex="1" parent="1">
          <mxGeometry x="380" y="400" width="150" height="110" as="geometry" />
        </mxCell>
        <mxCell id="uufs_YSgteQFesupHKWV-11" value="" style="shape=image;verticalLabelPosition=bottom;labelBackgroundColor=default;verticalAlign=top;aspect=fixed;imageAspect=0;image=https://wiki.casaos.io/_assets/casaos_logo_hd.svg;" vertex="1" parent="1">
          <mxGeometry x="380" y="425" width="119.45" height="25" as="geometry" />
        </mxCell>
        <mxCell id="uufs_YSgteQFesupHKWV-12" value="" style="shape=image;verticalLabelPosition=bottom;labelBackgroundColor=default;verticalAlign=top;aspect=fixed;imageAspect=0;image=https://upload.wikimedia.org/wikipedia/commons/thumb/b/bb/Gitea_Logo.svg/2560px-Gitea_Logo.svg.png;" vertex="1" parent="1">
          <mxGeometry x="390" y="460.00000000000006" width="60" height="37" as="geometry" />
        </mxCell>
        <mxCell id="uufs_YSgteQFesupHKWV-13" style="edgeStyle=orthogonalEdgeStyle;rounded=0;orthogonalLoop=1;jettySize=auto;html=1;startArrow=classic;startFill=1;" edge="1" parent="1" source="uufs_YSgteQFesupHKWV-14" target="uufs_YSgteQFesupHKWV-3">
          <mxGeometry relative="1" as="geometry" />
        </mxCell>
        <mxCell id="uufs_YSgteQFesupHKWV-14" value="Notebook Jean - Fedora Server" style="sketch=0;outlineConnect=0;gradientColor=none;html=1;whiteSpace=wrap;fontSize=12;fontStyle=0;shape=mxgraph.aws4.group;grIcon=mxgraph.aws4.group_on_premise;strokeColor=#858B94;fillColor=none;verticalAlign=top;align=left;spacingLeft=30;fontColor=#858B94;dashed=0;movable=0;resizable=0;rotatable=0;deletable=0;editable=0;locked=1;connectable=0;" vertex="1" parent="1">
          <mxGeometry x="660" y="170" width="270" height="360" as="geometry" />
        </mxCell>
        <mxCell id="uufs_YSgteQFesupHKWV-15" value="Jellyfin" style="shape=image;verticalLabelPosition=bottom;labelBackgroundColor=none;verticalAlign=top;aspect=fixed;imageAspect=0;image=https://www.openhab.org/logos/jellyfin.png;" vertex="1" parent="1">
          <mxGeometry x="670" y="212.4" width="47.6" height="47.6" as="geometry" />
        </mxCell>
        <mxCell id="uufs_YSgteQFesupHKWV-16" value="&lt;div&gt;250 Gb&lt;/div&gt;" style="sketch=0;pointerEvents=1;shadow=0;dashed=0;html=1;strokeColor=none;fillColor=#505050;labelPosition=center;verticalLabelPosition=bottom;verticalAlign=top;outlineConnect=0;align=center;shape=mxgraph.office.devices.hard_disk;" vertex="1" parent="1">
          <mxGeometry x="880" y="203.4" width="40" height="54" as="geometry" />
        </mxCell>
        <mxCell id="uufs_YSgteQFesupHKWV-17" value="VaultWarden" style="points=[[0,0],[0.25,0],[0.5,0],[0.75,0],[1,0],[1,0.25],[1,0.5],[1,0.75],[1,1],[0.75,1],[0.5,1],[0.25,1],[0,1],[0,0.75],[0,0.5],[0,0.25]];outlineConnect=0;gradientColor=none;html=1;whiteSpace=wrap;fontSize=12;fontStyle=0;container=1;pointerEvents=0;collapsible=0;recursiveResize=0;shape=mxgraph.aws4.group;grIcon=mxgraph.aws4.group_ec2_instance_contents;strokeColor=#D86613;fillColor=none;verticalAlign=top;align=left;spacingLeft=30;fontColor=#D86613;dashed=0;" vertex="1" parent="1">
          <mxGeometry x="380" y="530" width="150" height="80" as="geometry" />
        </mxCell>
        <mxCell id="uufs_YSgteQFesupHKWV-18" value="" style="shape=image;verticalLabelPosition=bottom;labelBackgroundColor=default;verticalAlign=top;aspect=fixed;imageAspect=0;image=https://upload.wikimedia.org/wikipedia/commons/thumb/c/cc/Bitwarden_logo.svg/2560px-Bitwarden_logo.svg.png;" vertex="1" parent="uufs_YSgteQFesupHKWV-17">
          <mxGeometry x="5.52" y="26.38" width="68.96" height="43.62" as="geometry" />
        </mxCell>
        <mxCell id="uufs_YSgteQFesupHKWV-19" value="" style="shape=image;verticalLabelPosition=bottom;labelBackgroundColor=default;verticalAlign=top;aspect=fixed;imageAspect=0;image=https://geekscircuit.com/content/images/2024/03/logo.png;" vertex="1" parent="1">
          <mxGeometry x="390" y="241.35" width="90" height="31.05" as="geometry" />
        </mxCell>
        <mxCell id="uufs_YSgteQFesupHKWV-20" value="PostgreSQL" style="points=[[0,0],[0.25,0],[0.5,0],[0.75,0],[1,0],[1,0.25],[1,0.5],[1,0.75],[1,1],[0.75,1],[0.5,1],[0.25,1],[0,1],[0,0.75],[0,0.5],[0,0.25]];outlineConnect=0;gradientColor=none;html=1;whiteSpace=wrap;fontSize=12;fontStyle=0;container=1;pointerEvents=0;collapsible=0;recursiveResize=0;shape=mxgraph.aws4.group;grIcon=mxgraph.aws4.group_ec2_instance_contents;strokeColor=#D86613;fillColor=none;verticalAlign=top;align=left;spacingLeft=30;fontColor=#D86613;dashed=0;" vertex="1" parent="1">
          <mxGeometry x="540" y="400" width="100" height="80" as="geometry" />
        </mxCell>
        <mxCell id="uufs_YSgteQFesupHKWV-21" value="" style="shape=image;verticalLabelPosition=bottom;labelBackgroundColor=default;verticalAlign=top;aspect=fixed;imageAspect=0;image=https://upload.wikimedia.org/wikipedia/commons/thumb/2/29/Postgresql_elephant.svg/540px-Postgresql_elephant.svg.png;" vertex="1" parent="uufs_YSgteQFesupHKWV-20">
          <mxGeometry x="30.610000000000014" y="30" width="38.78" height="40" as="geometry" />
        </mxCell>
        <mxCell id="uufs_YSgteQFesupHKWV-22" style="edgeStyle=orthogonalEdgeStyle;rounded=0;orthogonalLoop=1;jettySize=auto;html=1;exitX=1;exitY=0.5;exitDx=0;exitDy=0;entryX=0.5;entryY=0;entryDx=0;entryDy=0;" edge="1" parent="1" source="uufs_YSgteQFesupHKWV-9" target="uufs_YSgteQFesupHKWV-20">
          <mxGeometry relative="1" as="geometry" />
        </mxCell>
        <mxCell id="uufs_YSgteQFesupHKWV-23" value="500Gb" style="sketch=0;pointerEvents=1;shadow=0;dashed=0;html=1;strokeColor=none;fillColor=#505050;labelPosition=center;verticalLabelPosition=bottom;verticalAlign=top;outlineConnect=0;align=center;shape=mxgraph.office.devices.hard_disk;" vertex="1" parent="1">
          <mxGeometry x="830" y="203.4" width="40" height="54" as="geometry" />
        </mxCell>
        <mxCell id="uufs_YSgteQFesupHKWV-24" value="" style="shape=image;verticalLabelPosition=bottom;labelBackgroundColor=default;verticalAlign=top;aspect=fixed;imageAspect=0;image=https://somebooks.es/wp-content/uploads/2019/03/cockpit-logo-2.png;" vertex="1" parent="1">
          <mxGeometry x="730" y="216.20000000000002" width="92.2" height="40" as="geometry" />
        </mxCell>
        <mxCell id="uufs_YSgteQFesupHKWV-25" value="" style="shape=image;verticalLabelPosition=bottom;labelBackgroundColor=default;verticalAlign=top;aspect=fixed;imageAspect=0;image=https://canada1.discourse-cdn.com/free1/uploads/vaultwarden/original/1X/26a1c808c7d5849039d47820eef7889b3415e5ec.png;" vertex="1" parent="1">
          <mxGeometry x="470" y="550" width="55" height="55" as="geometry" />
        </mxCell>
        <mxCell id="uufs_YSgteQFesupHKWV-26" value="" style="shape=image;verticalLabelPosition=bottom;labelBackgroundColor=default;verticalAlign=top;aspect=fixed;imageAspect=0;image=https://raw.githubusercontent.com/containers/common/main/logos/podman-logo-full-vert.png;" vertex="1" parent="1">
          <mxGeometry x="760.7704511278196" y="272.4" width="68.45868725868725" height="55.752895752895746" as="geometry" />
        </mxCell>
        <mxCell id="uufs_YSgteQFesupHKWV-27" value="" style="rounded=1;arcSize=10;dashed=1;fillColor=none;gradientColor=none;dashPattern=1 1;strokeWidth=2;" vertex="1" parent="1">
          <mxGeometry x="670" y="305.26" width="250" height="197.14" as="geometry" />
        </mxCell>
      </root>
    </mxGraphModel>
  </diagram>
</mxfile>
